<svg style="position: absolute; width: 0; height: 0;" width="0" height="0" version="1.1" xmlns="http://www.w3.org/2000/svg">
    <defs>
        <!-- Random -->
        <symbol id="icon-random-calendar-hour" viewBox="0 0 32 32">
            <path d="M15.032 14.655h1.936v1.936h-1.936v-1.936z"></path>
            <path d="M3.516 32c0 0 0 0 0 0-1.924 0-3.487-1.545-3.516-3.462v-22.423c0-0.015 0-0.033 0-0.051 0-1.942 1.574-3.516 3.516-3.516 0 0 0 0 0 0h1.834v-2.548h1.936v2.548h17.427v-2.548h1.936v2.548h1.885c1.92 0.029 3.465 1.592 3.465 3.516 0 0.018 0 0.036 0 0.054v-0.003 9.753c-0.575-0.603-1.209-1.14-1.896-1.605l-0.041-0.026v-2.874h-28.127v17.172c0.028 0.85 0.724 1.529 1.579 1.529 0 0 0.001 0 0.001 0h10.67c0.491 0.727 1.028 1.362 1.626 1.932l0.005 0.004zM3.516 4.484c0 0-0.001 0-0.001 0-0.872 0-1.58 0.707-1.58 1.58 0 0.018 0 0.036 0.001 0.054v-0.003 3.363h28.127v-3.363c0.001-0.015 0.001-0.034 0.001-0.052 0-0.855-0.679-1.551-1.527-1.579h-1.837v2.548h-1.936v-2.548h-17.478v2.548h-1.936v-2.548z"></path>
            <path d="M23.704 32c-4.582 0-8.296-3.714-8.296-8.296s3.714-8.296 8.296-8.296c4.582 0 8.296 3.714 8.296 8.296v0c-0.006 4.579-3.716 8.29-8.295 8.296h-0.001zM23.704 17.345c-3.512 0-6.359 2.847-6.359 6.359s2.847 6.359 6.359 6.359c3.512 0 6.359-2.847 6.359-6.359v0c0-0.006 0-0.013 0-0.020 0-3.512-2.847-6.359-6.359-6.359 0 0 0 0 0 0v0z"></path>
            <path d="M22.675 24.673v-4.922h1.936v2.986h2.16v1.936h-4.097z"></path>
            <path d="M9.936 19.75h1.936v1.936h-1.936v-1.936z"></path>
            <path d="M4.841 19.75h1.936v1.936h-1.936v-1.936z"></path>
            <path d="M4.841 14.655h1.936v1.936h-1.936v-1.936z"></path>
            <path d="M9.936 14.655h1.936v1.936h-1.936v-1.936z"></path>
        </symbol>
        <symbol id="icon-blue-drops-mail" viewBox="0 0 32 32">
            <path d="M2.914 28.551c0 0 0 0 0 0-1.606 0-2.91-1.3-2.914-2.906v-19.29c0-1.609 1.305-2.914 2.914-2.914v0h26.171c1.609 0 2.914 1.305 2.914 2.914v0 19.29c0 1.609-1.305 2.914-2.914 2.914v0zM2.914 5.13c-0.676 0-1.224 0.548-1.224 1.225v0 19.29c0 0.676 0.548 1.225 1.225 1.225v0h26.171c0.676 0 1.224-0.549 1.224-1.225v0-19.29c0-0.676-0.549-1.225-1.224-1.225v0zM5.658 23.73c-0.466-0.001-0.844-0.379-0.844-0.845 0-0.233 0.094-0.444 0.247-0.597l3.209-3.209c0.155-0.169 0.377-0.275 0.623-0.275 0.467 0 0.845 0.378 0.845 0.845 0 0.246-0.105 0.468-0.274 0.622l-0.001 0.001-3.209 3.201c-0.151 0.153-0.363 0.248-0.595 0.248-0.001 0-0.002 0-0.002 0v0zM26.319 23.73c-0.002 0-0.003 0-0.005 0-0.24 0-0.458-0.098-0.615-0.256l-3.387-3.387c-0.159-0.159-0.257-0.378-0.257-0.62 0-0.484 0.392-0.877 0.877-0.877 0.242 0 0.461 0.098 0.62 0.257v0l3.387 3.379c0.159 0.159 0.257 0.377 0.257 0.62 0 0.483-0.392 0.876-0.876 0.876-0.001 0-0.001 0-0.002 0v0zM16.003 19.6c-0.001 0-0.002 0-0.004 0-0.801 0-1.526-0.326-2.050-0.852l-8.905-8.897c-0.133-0.148-0.214-0.346-0.214-0.562 0-0.467 0.378-0.845 0.845-0.845 0.199 0 0.381 0.068 0.526 0.184l-0.002-0.002 0.264 0.24 8.672 8.688c0.221 0.221 0.527 0.357 0.864 0.357s0.643-0.137 0.864-0.357l6.929-6.929c0.017-0.042 0.041-0.078 0.070-0.108l2.023-2.023c0.159-0.159 0.377-0.258 0.62-0.258 0.483 0 0.874 0.392 0.874 0.874 0 0.24-0.097 0.458-0.254 0.616l-2.023 2.023c-0.034 0.030-0.071 0.056-0.113 0.076l-0.003 0.002-6.929 6.921c-0.523 0.526-1.248 0.852-2.050 0.852-0.002 0-0.002 0-0.004 0v0z"></path>
        </symbol>
        <!-- Hawcons +0,3px -->
        <!-- Linecons -->
        <symbol id="icon-linecons-bubble" viewBox="0 0 32 32">
            <path d="M16 7c-5.963 0-11 3.206-11 7 0 0.276 0.224 0.5 0.5 0.5s0.5-0.224 0.5-0.5c0-3.196 4.673-6 10-6 0.275 0 0.5-0.224 0.5-0.5s-0.224-0.5-0.5-0.5z"></path>
            <path d="M16 2c-8.837 0-16 5.373-16 12 0 4.127 2.779 7.766 7.008 9.926 0 0.027-0.008 0.045-0.008 0.074 0 1.793-1.339 3.723-1.928 4.736 0.001 0 0.002 0 0.002 0-0.047 0.11-0.074 0.231-0.074 0.358 0 0.5 0.405 0.906 0.906 0.906 0.094 0 0.259-0.025 0.255-0.014 3.125-0.512 6.069-3.383 6.753-4.215 0.999 0.147 2.029 0.229 3.086 0.229 8.835 0 16-5.373 16-12s-7.164-12-16-12zM16 24c-0.917 0-1.858-0.070-2.796-0.207-0.097-0.016-0.194-0.021-0.29-0.021-0.594 0-1.163 0.264-1.546 0.73-0.428 0.521-1.646 1.684-3.085 2.539 0.39-0.895 0.695-1.898 0.716-2.932 0.006-0.064 0.009-0.129 0.009-0.184 0-0.752-0.421-1.439-1.090-1.781-3.706-1.892-5.918-4.937-5.918-8.144 0-5.514 6.28-10 14-10 7.718 0 14 4.486 14 10s-6.281 10-14 10z"></path>
        </symbol>
        <symbol id="icon-linecons-bulb" viewBox="0 0 32 32">
            <path d="M16 0c-6.076 0-11 4.924-11 11 0 4.031 3.688 8.303 5.031 12.055 2.003 5.595 1.781 8.945 5.969 8.945 4.25 0 3.965-3.334 5.969-8.922 1.347-3.76 5.031-8.078 5.031-12.078 0-6.076-4.926-11-11-11zM18.592 27.176l-4.958 0.619c-0.177-0.512-0.367-1.111-0.598-1.893-0.003-0.010-0.007-0.021-0.009-0.031l6.188-0.773c-0.088 0.295-0.182 0.605-0.264 0.883-0.131 0.449-0.248 0.839-0.359 1.195zM12.736 24.908c-0.182-0.602-0.387-1.236-0.615-1.908h7.766c-0.123 0.359-0.246 0.719-0.352 1.059l-6.799 0.849zM16 30c-1.013 0-1.479-0.117-1.997-1.25l4.238-0.531c-0.614 1.654-1.061 1.781-2.241 1.781zM20.672 21h-9.333c-0.498-1.080-1.096-2.16-1.686-3.217-1.305-2.335-2.653-4.75-2.653-6.783 0-4.963 4.037-9 9-9s9 4.037 9 9c0 2.018-1.35 4.446-2.656 6.795-0.584 1.053-1.178 2.131-1.672 3.205z"></path>
            <path d="M16 5c-3.309 0-6 2.691-6 6 0 0.276 0.224 0.5 0.5 0.5s0.5-0.224 0.5-0.5c0-2.757 2.243-5 5-5 0.276 0 0.5-0.224 0.5-0.5s-0.225-0.5-0.5-0.5z"></path>
        </symbol>
        <symbol id="icon-linecons-calendar" viewBox="0 0 32 32">
            <path d="M29.334 3h-4.334v-2c0-0.553-0.447-1-1-1s-1 0.447-1 1v2h-6v-2c0-0.553-0.448-1-1-1s-1 0.447-1 1v2h-6v-2c0-0.553-0.448-1-1-1s-1 0.447-1 1v2h-4.333c-1.473 0-2.667 1.193-2.667 2.666v23.667c0 1.473 1.194 2.667 2.667 2.667h26.667c1.473 0 2.666-1.194 2.666-2.667v-23.667c0-1.473-1.193-2.666-2.666-2.666zM30 29.333c0 0.368-0.299 0.667-0.666 0.667h-26.667c-0.368 0-0.667-0.299-0.667-0.667v-23.667c0-0.367 0.299-0.666 0.667-0.666h4.333v2c0 0.553 0.448 1 1 1s1-0.447 1-1v-2h6v2c0 0.553 0.448 1 1 1s1-0.447 1-1v-2h6v2c0 0.553 0.447 1 1 1s1-0.447 1-1v-2h4.334c0.367 0 0.666 0.299 0.666 0.666v23.667z"></path>
            <path d="M7 12h4v3h-4v-3z"></path>
            <path d="M7 17h4v3h-4v-3z"></path>
            <path d="M7 22h4v3h-4v-3z"></path>
            <path d="M14 22h4v3h-4v-3z"></path>
            <path d="M14 17h4v3h-4v-3z"></path>
            <path d="M14 12h4v3h-4v-3z"></path>
            <path d="M21 22h4v3h-4v-3z"></path>
            <path d="M21 17h4v3h-4v-3z"></path>
            <path d="M21 12h4v3h-4v-3z"></path>
        </symbol>
        <symbol id="icon-linecons-camera" viewBox="0 0 32 32">
            <path d="M16 10.001c-4.419 0-8 3.581-8 8s3.581 8 8 8c4.418 0 8-3.582 8-8s-3.582-8-8-8zM20.555 21.906c-2.156 2.516-5.943 2.807-8.459 0.65-2.517-2.156-2.807-5.944-0.65-8.459 2.155-2.517 5.943-2.807 8.459-0.65 2.515 2.155 2.806 5.944 0.65 8.459z"></path>
            <path d="M16 14.001c-2.209 0-3.999 1.791-4 3.999v0.002c0 0.275 0.224 0.5 0.5 0.5s0.5-0.225 0.5-0.5v-0.002c0.001-1.656 1.343-2.999 3-2.999 0.276 0 0.5-0.224 0.5-0.5s-0.224-0.5-0.5-0.5z"></path>
            <path d="M29.492 9.042l-4.334-0.723-1.373-3.434c-0.459-1.145-1.553-1.885-2.785-1.885h-10c-1.232 0-2.326 0.74-2.786 1.886l-1.372 3.433-4.333 0.723c-1.454 0.241-2.509 1.485-2.509 2.958v15c0 1.654 1.346 3 3 3h26c1.654 0 3-1.346 3-3v-15c0-1.473-1.055-2.717-2.508-2.958zM30 27c0 0.553-0.447 1-1 1h-26c-0.553 0-1-0.447-1-1v-15c0-0.489 0.354-0.906 0.836-0.986l5.444-0.907 1.791-4.478c0.153-0.379 0.52-0.629 0.929-0.629h10c0.408 0 0.775 0.249 0.928 0.629l1.791 4.478 5.445 0.907c0.482 0.080 0.836 0.497 0.836 0.986v15z"></path>
        </symbol>
        <symbol id="icon-linecons-cup" viewBox="0 0 32 32">
            <path d="M28.111 5.022l-1.215-3.655c-0.271-0.817-1.035-1.367-1.896-1.367h-18c-0.862 0-1.625 0.55-1.898 1.367l-1.225 3.657c-1.044 0.067-1.877 0.915-1.877 1.976v3c0 1.104 0.896 2 2 2h1.034c0 0.075-0.030 0.146-0.021 0.221l2 18c0.112 1.011 0.967 1.779 1.987 1.779h14c1.020 0 1.875-0.768 1.986-1.779l2-18c0.010-0.075-0.021-0.146-0.021-0.221h1.035c1.104 0 2-0.896 2-2v-3c0-1.065-0.84-1.917-1.889-1.978zM7 2h18l1 3h-20l1-3zM9 30l-0.333-3h14.666l-0.333 3h-14zM23.443 26h-14.888l-1.111-10h17.111l-1.112 10zM24.666 15h-17.333l-0.333-3h18l-0.334 3zM28 10h-24v-3h24v3z"></path>
        </symbol>
        <symbol id="icon-linecons-diamond" viewBox="0 0 32 32">
            <path d="M31.414 9.677l-5.080-5.081c-0.375-0.375-0.885-0.586-1.414-0.586h-17.839c-0.53 0-1.039 0.211-1.414 0.586l-5.080 5.081c-0.393 0.392-0.589 0.909-0.587 1.427 0.003 0.47 0.171 0.939 0.506 1.316l13.999 14.908c0.38 0.428 0.924 0.672 1.495 0.672s1.115-0.244 1.494-0.672l14-14.908c0.342-0.385 0.51-0.867 0.506-1.348-0.004-0.506-0.201-1.010-0.586-1.395zM18.219 11.010h-4.439l2.22-1.849 2.219 1.849zM16.782 8.51l2.732-2.278 2.018 2.018-2.532 2.109-2.218-1.849zM13 10.359l-2.532-2.109 2.018-2.018 2.733 2.278-2.219 1.849zM18.49 12.010l-2.49 12.453-2.49-12.453h4.98zM19.51 12.010h4.906l-7.359 12.269 2.453-12.269zM19.779 11.010l2.463-2.051 2.051 2.051h-4.514zM20.707 6.010h3.512l-1.916 1.597-1.596-1.597zM16 7.86l-2.22-1.85h4.438l-2.218 1.85zM9.696 7.607l-1.916-1.597h3.513l-1.597 1.597zM9.758 8.959l2.462 2.051h-4.513l2.051-2.051zM12.49 12.010l2.453 12.269-7.36-12.269h4.907zM12.704 22.488l-9.84-10.478h3.554l6.286 10.478zM25.582 12.010h3.555l-9.842 10.48 6.287-10.48zM25.707 11.010l-2.693-2.693 2.297-1.915 4.607 4.608h-4.211zM6.686 6.4l2.301 1.917-2.694 2.693h-4.287l4.68-4.61z"></path>
        </symbol>
        <symbol id="icon-linecons-eye" viewBox="0 0 32 32">
          <path d="M31.965 15.776c-0.010-0.042-0.004-0.087-0.020-0.128-0.006-0.017-0.021-0.026-0.027-0.042-0.010-0.024-0.008-0.051-0.021-0.074-2.9-5.551-9.213-9.528-15.873-9.528-6.661 0-12.973 3.971-15.875 9.521-0.013 0.023-0.011 0.050-0.021 0.074-0.007 0.016-0.021 0.025-0.027 0.042-0.016 0.041-0.010 0.086-0.020 0.128-0.018 0.075-0.035 0.147-0.035 0.224s0.018 0.148 0.035 0.224c0.010 0.042 0.004 0.087 0.020 0.128 0.006 0.017 0.021 0.026 0.027 0.042 0.010 0.024 0.008 0.051 0.021 0.074 2.901 5.551 9.214 9.528 15.875 9.528 6.66 0 12.973-3.971 15.873-9.521 0.014-0.023 0.012-0.050 0.021-0.074 0.006-0.016 0.021-0.025 0.027-0.042 0.016-0.041 0.010-0.086 0.020-0.128 0.017-0.076 0.035-0.148 0.035-0.224s-0.018-0.149-0.035-0.224zM16.023 23.988c-5.615 0-11.112-3.191-13.851-7.995 2.754-4.81 8.243-7.99 13.851-7.99 5.613 0 11.111 3.192 13.85 7.995-2.754 4.811-8.242 7.99-13.85 7.99z"></path>
          <path d="M16.023 11.999c-0.002 0-0.004 0.001-0.006 0.001-2.205 0.004-3.992 1.791-3.992 3.996 0 0.276 0.224 0.5 0.5 0.5s0.499-0.224 0.499-0.5c0-1.652 1.345-2.997 2.999-2.997v-0.001c0.275 0 0.498-0.224 0.498-0.499 0-0.277-0.222-0.5-0.498-0.5z"></path>
          <path d="M16 9c-3.867 0-7 3.134-7 7s3.134 7 7 7c3.865 0 7-3.135 7-7 0-3.867-3.135-7-7-7zM16 22c-3.309 0-6-2.691-6-6s2.691-6 6-6c3.309 0 6 2.691 6 6s-2.691 6-6 6z"></path>
        </symbol>
        <symbol id="icon-linecons-key" viewBox="0 0 32 32">
            <path d="M22.004 0c-5.523 0-10 4.478-10 10 0 1.285 0.269 2.501 0.713 3.629l-12.149 12.148c-0.351 0.352-0.568 0.686-0.568 1.223v3c0 1.070 0.929 2 2 2h3c0.536 0 0.875-0.215 1.226-0.564l1.435-1.436h2.343c1.104 0 2-0.896 2-2v-2h2c1.104 0 2-0.896 2-2v-2.344l2.369-2.371c1.129 0.445 2.344 0.715 3.631 0.715 5.521 0 10-4.478 10-10s-4.479-10-10-10zM22.004 18c-1.48 0-2.852-0.43-4.041-1.132l-0.344 0.343-3.030 3.031c-0.375 0.375-0.586 0.883-0.586 1.414v2.344h-2c-1.104 0-2 0.895-2 2v2h-2.342c-0.53 0-1.039 0.211-1.414 0.586l-1.418 1.418-2.826-0.004-0.003-2.85 11.665-11.644c0 0 0 0.001 0.001 0.002l1.469-1.469c-0.702-1.189-1.132-2.56-1.132-4.040 0-4.418 3.583-8 8-8s8 3.582 8 8-3.581 8.001-7.999 8.001zM27.82 8.239c-1.121-1.562-2.486-2.925-4.055-4.054-0.255-0.185-0.585-0.231-0.882-0.127-1.389 0.489-2.34 1.439-2.826 2.828-0.037 0.104-0.055 0.212-0.055 0.319 0 0.199 0.062 0.396 0.182 0.563 1.125 1.564 2.488 2.928 4.053 4.053 0.256 0.184 0.584 0.231 0.881 0.128 1.391-0.486 2.342-1.438 2.83-2.828 0.037-0.104 0.055-0.212 0.055-0.319-0.001-0.199-0.064-0.396-0.183-0.563zM24.82 11.010c-1.478-1.063-2.765-2.35-3.82-3.793 0.387-1.103 1.111-1.827 2.182-2.221 1.479 1.065 2.764 2.349 3.816 3.811-0.391 1.095-1.113 1.815-2.178 2.203z"></path>
        </symbol>
        <symbol id="icon-linecons-location" viewBox="0 0 32 32">
            <path d="M16.002 17.746c3.309 0 6-2.692 6-6s-2.691-6-6-6c-3.309 0-6 2.691-6 6s2.691 6 6 6zM16.002 6.746c2.758 0 5 2.242 5 5s-2.242 5-5 5c-2.758 0-5-2.242-5-5s2.242-5 5-5z"></path>
            <path d="M16 0c-6.618 0-12 5.316-12 12.001 0 7 6.001 14.161 10.376 19.194 0.016 0.020 0.718 0.805 1.586 0.805 0.002 0 0.073 0 0.077 0 0.867 0 1.57-0.785 1.586-0.805 4.377-5.033 10.377-12.193 10.377-19.194 0-6.685-5.383-12.001-12.002-12.001zM16.117 29.883c-0.021 0.020-0.082 0.064-0.135 0.098-0.010-0.027-0.084-0.086-0.129-0.133-3.665-4.217-9.853-11.334-9.853-17.847 0-5.514 4.487-10.001 10-10.001 5.516 0 10.002 4.487 10.002 10.002 0 6.512-6.188 13.629-9.885 17.881z"></path>
        </symbol>
        <symbol id="icon-linecons-megaphone" viewBox="0 0 32 32">
            <path d="M25 0c-2.053 0-3.666 1.41-4.824 3.586l-0.021-0.012c-1.682 3.293-4.186 5.426-6.929 5.426h-9.226c-2.243 0-4 2.197-4 5 0 2.805 1.757 5 4 5 1.103 0.004 1.995 0.896 1.995 2v9c0 1.105 0.896 2 2 2h4c1.104 0 2-0.895 2-2v-1c0-1-1-1.447-1-2v-7c0-0.023 0.016-0.039 0.018-0.062 0.010-0.143 0.049-0.275 0.112-0.395 0.018-0.033 0.037-0.059 0.059-0.088 0.080-0.119 0.181-0.217 0.304-0.293 0.006-0.004 0.008-0.010 0.014-0.014 0.004 0 0.007-0.004 0.011-0.004 0.080-0.045 0.176-0.055 0.266-0.080 2.524 0.268 4.809 2.305 6.377 5.373l0.025-0.012c1.159 2.169 2.768 3.575 4.819 3.575 4.596 0 7-7.043 7-14s-2.404-14-7-14zM20 14c0-1.037 0.061-2.039 0.164-3h2.836c1.104 0 2 1.344 2 3 0 1.658-0.896 3-2 3h-2.836c-0.103-0.961-0.164-1.961-0.164-3zM2 14c0-1.656 0.896-3 2-3h7.014c-0.62 0.729-1.014 1.787-1.014 3 0 1.215 0.394 2.273 1.014 3h-7.014c-1.104 0-2-1.342-2-3zM11.995 30h-4v-9c0-0.729-0.195-1.41-0.537-2h0.698v0.012h3.008c-0.107 0.311-0.169 0.641-0.169 0.988v7c0 0.963 0.538 1.604 0.859 1.986 0.044 0.053 0.096 0.107 0.141 0.166v0.848zM13.226 17.012h-0.226v-0.012c-1.104 0-2-1.342-2-3 0-1.656 0.896-3 2-3h0.226c1.886 0 3.652-0.742 5.206-2.018-0.286 1.61-0.432 3.315-0.432 5.018 0 1.709 0.146 3.42 0.434 5.031-1.555-1.277-3.322-2.019-5.208-2.019zM25 26c-2.018 0-3.75-2.871-4.541-7h2.541c2.242 0 4-2.195 4-5 0-2.803-1.758-5-4-5h-2.541c0.791-4.127 2.523-7 4.541-7 2.762 0 5 5.373 5 12s-2.238 12-5 12z"></path>
        </symbol>
        <symbol id="icon-linecons-news" viewBox="0 0 32 32">
            <path d="M29 0h-22c-1.657 0-3 1.342-3 3v2h-1c-1.657 0-3 1.342-3 3v20c0 2.209 1.791 4 4 4h24c2.209 0 4-1.791 4-4v-25c0-1.658-1.344-3-3-3zM30 28c0 1.102-0.898 2-2 2h-24c-1.103 0-2-0.898-2-2v-20c0-0.552 0.448-1 1-1h1v20c0 0.553 0.447 1 1 1s1-0.447 1-1v-24c0-0.552 0.448-1 1-1h22c0.551 0 1 0.448 1 1v25zM19.498 13.005c-0.275 0-0.5-0.224-0.5-0.5s0.225-0.5 0.5-0.5h8c0.277 0 0.5 0.224 0.5 0.5s-0.223 0.5-0.5 0.5h-8zM19.498 10.005c-0.275 0-0.5-0.224-0.5-0.5s0.225-0.5 0.5-0.5h8c0.277 0 0.5 0.224 0.5 0.5s-0.223 0.5-0.5 0.5h-8zM19.498 7.005c-0.275 0-0.5-0.224-0.5-0.5s0.225-0.5 0.5-0.5h8c0.277 0 0.5 0.224 0.5 0.5s-0.223 0.5-0.5 0.5h-8zM16.5 27.004c0.276 0 0.5 0.225 0.5 0.5 0 0.277-0.225 0.5-0.5 0.5h-8c-0.276 0-0.5-0.223-0.5-0.5 0-0.275 0.224-0.5 0.5-0.5h8zM16.5 24.004c0.276 0 0.5 0.225 0.5 0.5 0 0.277-0.225 0.5-0.5 0.5h-8c-0.276 0-0.5-0.223-0.5-0.5 0-0.275 0.224-0.5 0.5-0.5h8zM16.5 21.004c0.276 0 0.5 0.225 0.5 0.5 0 0.277-0.225 0.5-0.5 0.5h-8c-0.276 0-0.5-0.223-0.5-0.5 0-0.275 0.224-0.5 0.5-0.5h8zM27.5 27.004c0.275 0 0.5 0.225 0.5 0.5 0 0.277-0.225 0.5-0.5 0.5h-8c-0.277 0-0.5-0.223-0.5-0.5 0-0.275 0.223-0.5 0.5-0.5h8zM27.5 24.004c0.275 0 0.5 0.225 0.5 0.5 0 0.277-0.225 0.5-0.5 0.5h-8c-0.277 0-0.5-0.223-0.5-0.5 0-0.275 0.223-0.5 0.5-0.5h8zM27.5 21.004c0.275 0 0.5 0.225 0.5 0.5 0 0.277-0.225 0.5-0.5 0.5h-8c-0.277 0-0.5-0.223-0.5-0.5 0-0.275 0.223-0.5 0.5-0.5h8zM27.5 15.004c0.275 0 0.5 0.224 0.5 0.5s-0.225 0.5-0.5 0.5h-19c-0.276 0-0.5-0.224-0.5-0.5s0.224-0.5 0.5-0.5h19zM27.5 18.004c0.275 0 0.5 0.225 0.5 0.5 0 0.277-0.225 0.5-0.5 0.5h-19c-0.276 0-0.5-0.223-0.5-0.5 0-0.275 0.224-0.5 0.5-0.5h19zM9 13h7c0.553 0 1-0.447 1-1v-6.996c0-0.553-0.447-1-1-1h-7c-0.553 0-1 0.447-1 1v6.996c0 0.552 0.447 1 1 1zM10 6h5v5h-5v-5z"></path>
        </symbol>
        <symbol id="icon-linecons-pen" viewBox="0 0 32 32">
            <path d="M29.395 2.58c-1.645-1.643-3.811-2.58-5.946-2.58-1.801 0-3.459 0.668-4.67 1.877l-4.867 4.904c-0.015 0.014-0.032 0.023-0.047 0.038-0.008 0.008-0.013 0.019-0.021 0.026l0.002 0.002-10.329 10.409c-0.476 0.473-0.821 1.062-1.013 1.705l-2.349 8.508c-0.002 0.023-0.155 0.691-0.155 1.031 0 1.932 1.569 3.5 3.504 3.5 0.385 0 1.13-0.184 1.157-0.188l8.478-2.229c0.644-0.191 1.229-0.539 1.705-1.016l15.263-15.383c2.776-2.778 2.463-7.434-0.712-10.604zM16.014 23.795c-0.082-0.902-0.337-1.787-0.719-2.627l9.455-9.454c0.578 1.826 0.281 3.736-0.986 5.004-0.008 0.008-0.018 0.013-0.025 0.021l0.014 0.013-7.728 7.79c0-0.249 0.012-0.493-0.011-0.747zM14.793 20.256c-0.373-0.613-0.797-1.205-1.322-1.729-0.611-0.611-1.312-1.090-2.044-1.492l9.532-9.532c0.748 0.332 1.465 0.805 2.098 1.438 0.541 0.539 0.959 1.143 1.281 1.771l-9.545 9.544zM10.486 16.562c-0.926-0.373-1.896-0.586-2.868-0.599l7.703-7.762c1.179-1.15 2.896-1.481 4.587-1.062l-9.422 9.423zM4.167 29.873c-0.109 0.025-0.448 0.111-0.678 0.127-0.822-0.010-1.489-0.678-1.489-1.5 0.012-0.168 0.079-0.457 0.102-0.562l1.053-3.814c1.143-0.031 2.373 0.414 3.34 1.383 0.982 0.98 1.444 2.234 1.394 3.391l-3.722 0.975zM8.874 28.637c-0.024-1.342-0.57-2.738-1.672-3.838-1.042-1.043-2.406-1.645-3.766-1.699l0.996-3.607c0.072-0.24 0.215-0.477 0.391-0.684 2.006-1.436 5.091-1.012 7.234 1.133 2.267 2.266 2.617 5.586 0.871 7.568-0.116 0.061-0.233 0.119-0.359 0.156l-3.695 0.971zM28.691 11.772l-1.684 1.697c0-0.226 0.027-0.443 0.006-0.674-0.176-1.935-1.078-3.806-2.543-5.269-1.629-1.63-3.789-2.565-5.928-2.571l1.656-1.67c0.829-0.827 1.986-1.285 3.251-1.285 1.609 0 3.262 0.728 4.533 1.995 1.193 1.191 1.904 2.671 2.006 4.168 0.094 1.397-0.367 2.678-1.297 3.609z"></path>
        </symbol>
        <symbol id="icon-linecons-phone" viewBox="0 0 32 32">
            <path d="M24 0h-16c-1.658 0-3 1.343-3 3v26c0 1.658 1.343 3 3 3h16c1.656 0 3-1.344 3-3v-26c0-1.658-1.344-3-3-3zM25 29c0 0.551-0.449 1-1 1h-16c-0.552 0-1-0.447-1-1v-2.004h18v2.004zM25 25.996h-18v-19.996h18v19.996zM25 5h-18v-2c0-0.552 0.448-1 1-1h16c0.551 0 1 0.448 1 1v2z"></path>
            <path d="M18 3.5c0 0.276-0.225 0.5-0.5 0.5h-3c-0.277 0-0.5-0.224-0.5-0.5v0c0-0.277 0.223-0.5 0.5-0.5h3c0.275 0 0.5 0.223 0.5 0.5v0z"></path>
            <path d="M17 28.496c0 0.275-0.225 0.5-0.5 0.5h-1c-0.276 0-0.5-0.225-0.5-0.5v0c0-0.277 0.224-0.5 0.5-0.5h1c0.275 0 0.5 0.223 0.5 0.5v0z"></path>
        </symbol>
        <symbol id="icon-linecons-search" viewBox="0 0 32 32">
            <path d="M20 0.005c-6.627 0-12 5.373-12 12 0 2.026 0.507 3.933 1.395 5.608l-8.344 8.342 0.007 0.006c-0.652 0.641-1.058 1.529-1.058 2.516 0 1.949 1.58 3.529 3.529 3.529 0.985 0 1.874-0.406 2.515-1.059l-0.002-0.002 8.341-8.34c1.676 0.891 3.586 1.4 5.617 1.4 6.627 0 12-5.373 12-12s-5.373-12-12-12zM4.795 29.697c-0.322 0.334-0.768 0.543-1.266 0.543-0.975 0-1.765-0.789-1.765-1.764 0-0.498 0.21-0.943 0.543-1.266l-0.009-0.008 8.066-8.066c0.705 0.951 1.545 1.791 2.494 2.498l-8.063 8.063zM20 22.006c-5.522 0-10-4.479-10-10s4.478-10 10-10c5.521 0 10 4.478 10 10s-4.479 10-10 10z"></path>
            <path d="M20 5.005c-3.867 0-7 3.134-7 7 0 0.276 0.224 0.5 0.5 0.5s0.5-0.224 0.5-0.5c0-3.313 2.686-6 6-6 0.275 0 0.5-0.224 0.5-0.5s-0.225-0.5-0.5-0.5z"></path>
        </symbol>
        <symbol id="icon-linecons-tag" viewBox="0 0 32 32">
            <path d="M31.391 13.883l-5-8c-0.73-1.169-2.012-1.88-3.391-1.88h-19c-2.209 0-4 1.791-4 4v16c0 2.209 1.791 4 4 4h19c1.379 0 2.66-0.711 3.391-1.881l5-8c0.812-1.295 0.812-2.942 0-4.239zM29.695 17.062l-5 8.002c-0.367 0.588-1.002 0.939-1.695 0.939h-19c-1.103 0-2-0.898-2-2v-16c0-1.103 0.897-2 2-2h19c0.693 0 1.328 0.352 1.695 0.939l5 8c0.403 0.645 0.403 1.477 0 2.12zM23 13.003c-1.658 0-3 1.343-3 3s1.342 3 3 3c1.656 0 3-1.344 3-3 0-1.657-1.344-3-3-3zM23 18.004c-1.105 0-2-0.896-2-2s0.895-2 2-2c1.104 0 2 0.896 2 2s-0.896 2-2 2z"></path>
        </symbol>
        <symbol id="icon-linecons-trash" viewBox="0 0 32 32">
            <path d="M29.98 6.819c-0.096-1.57-1.387-2.816-2.98-2.816h-3v-1.002c0-1.657-1.344-3-3-3h-10c-1.657 0-3 1.343-3 3v1.001h-3c-1.595 0-2.885 1.246-2.981 2.816h-0.019v2.183c0 1.104 0.896 2 2 2v0 17c0 2.209 1.791 4 4 4h16c2.209 0 4-1.791 4-4v-17c1.104 0 2-0.896 2-2v-2.182h-0.020zM10 3.002c0-0.553 0.447-1 1-1h10c0.553 0 1 0.447 1 1v1h-12v-1zM26 28.002c0 1.102-0.898 2-2 2h-16c-1.103 0-2-0.898-2-2v-17h20v17zM28 8.001v1h-24v-1.999c0-0.553 0.447-1 1-1h22c0.553 0 1 0.447 1 1v0.999z"></path>
            <path d="M9 28.006h2c0.553 0 1-0.447 1-1v-13c0-0.553-0.447-1-1-1h-2c-0.553 0-1 0.447-1 1v13c0 0.553 0.447 1 1 1zM9 14.005h2v13h-2v-13z"></path>
            <path d="M15 28.006h2c0.553 0 1-0.447 1-1v-13c0-0.553-0.447-1-1-1h-2c-0.553 0-1 0.447-1 1v13c0 0.553 0.447 1 1 1zM15 14.005h2v13h-2v-13z"></path>
            <path d="M21 28.006h2c0.553 0 1-0.447 1-1v-13c0-0.553-0.447-1-1-1h-2c-0.553 0-1 0.447-1 1v13c0 0.553 0.447 1 1 1zM21 14.005h2v13h-2v-13z"></path>
        </symbol>
        <symbol id="icon-linecons-user" viewBox="0 0 32 32">
            <path d="M31.11 28.336c-0.201-0.133-3.848-2.525-9.273-3.699 1.99-2.521 3.268-5.912 3.811-8.169 0.754-3.128 0.461-9.248-2.543-13.062-1.756-2.229-4.213-3.406-7.105-3.406s-5.349 1.178-7.104 3.406c-3.004 3.813-3.296 9.933-2.543 13.061 0.543 2.257 1.82 5.648 3.811 8.169-5.425 1.174-9.072 3.566-9.272 3.699-0.733 0.488-1.061 1.4-0.805 2.242 0.254 0.845 1.033 1.423 1.913 1.423h28c0.881 0 1.658-0.578 1.914-1.422 0.257-0.842-0.071-1.754-0.804-2.242zM20.267 23.398l-0.326 0.414c-2.385 2.74-5.495 2.74-7.879 0l-0.327-0.414c-2.785-3.529-4.167-8.197-3.572-12.65 0.545-4.279 2.997-8.748 7.837-8.748s7.293 4.47 7.838 8.749c0.593 4.455-0.784 9.118-3.571 12.649zM2 30c0.138-0.092 3.526-2.314 8.586-3.408l2.484-0.537c0.887 0.582 1.86 0.945 2.93 0.945 1.071 0 2.043-0.363 2.93-0.945l2.484 0.537c5.020 1.086 8.396 3.283 8.586 3.408h-28z"></path>
        </symbol>
        <!-- Feather - 0,3px https://feathericons.com/ -->
        <symbol id="icon-feather-alert-triangle" viewBox="0 0 24 24">
            <path d="M3.263 21.999c-0.031 0.002-0.067 0.003-0.103 0.003-0.426 0-0.822-0.131-1.149-0.354l0.007 0.004c-0.829-0.5-1.374-1.396-1.374-2.419 0-0.502 0.131-0.973 0.361-1.381l-0.007 0.014 8.572-14.592c0.203-0.381 0.502-0.687 0.867-0.892l0.011-0.006c0.4-0.237 0.883-0.378 1.398-0.378 0.004 0 0.007 0 0.011 0h-0.001c0.261 0.001 0.514 0.034 0.756 0.096l-0.021-0.005c0.747 0.182 1.362 0.648 1.738 1.273l0.007 0.013 8.572 14.49c0.229 0.378 0.388 0.824 0.447 1.3l0.002 0.016v0.122c-0.016 0.738-0.334 1.399-0.835 1.866l-0.002 0.001c-0.459 0.509-1.122 0.828-1.858 0.828-0.025 0-0.049-0-0.074-0.001l0.004 0zM11.223 3.743c-0.164 0.051-0.298 0.156-0.386 0.293l-0.002 0.003v0.092l-8.755 14.449c-0.094 0.186-0.149 0.405-0.149 0.638 0 0.505 0.26 0.949 0.654 1.206l0.006 0.003c0.168 0.092 0.369 0.146 0.582 0.146 0.029 0 0.057-0.001 0.086-0.003l-0.004 0h17.347c0.363-0.014 0.688-0.163 0.929-0.398l-0 0 0.122-0.194c0.12-0.156 0.192-0.354 0.192-0.569 0-0.095-0.014-0.188-0.041-0.275l0.002 0.007c0.007-0.039 0.011-0.084 0.011-0.131 0-0.192-0.070-0.368-0.185-0.503l0.001 0.001-8.623-14.286c-0.258-0.37-0.675-0.614-1.15-0.633l-0.003-0c-0.003-0-0.007-0-0.011-0-0.227 0-0.441 0.057-0.629 0.157l0.007-0.003z"></path>
            <path d="M11.937 13.835c-0.016 0.001-0.034 0.002-0.053 0.002-0.366 0-0.663-0.297-0.663-0.663 0-0.019 0.001-0.037 0.002-0.056l-0 0.002v-4.082c0-0.395 0.32-0.714 0.714-0.714s0.714 0.32 0.714 0.714v0 4.082c0.001 0.016 0.002 0.034 0.002 0.053 0 0.366-0.297 0.663-0.663 0.663-0.019 0-0.037-0.001-0.056-0.002l0.002 0z"></path>
            <path d="M11.937 18.019c-0.004 0-0.009 0-0.013 0-0.445 0-0.806-0.361-0.806-0.806 0-0.229 0.095-0.435 0.248-0.582l0-0c0.142-0.151 0.343-0.246 0.566-0.246s0.424 0.094 0.566 0.245l0 0c0.151 0.142 0.246 0.343 0.246 0.566s-0.094 0.424-0.245 0.566l-0 0c-0.132 0.156-0.328 0.255-0.547 0.255-0.005 0-0.010-0-0.015-0l0.001 0z"></path>
        </symbol>
        <symbol id="icon-feather-check" viewBox="0 0 24 24">
            <path d="M9.1 18.014c-0.008 0-0.018 0.001-0.028 0.001-0.178 0-0.338-0.079-0.446-0.203l-0.001-0.001-4.844-4.844c-0.133-0.119-0.217-0.292-0.217-0.484s0.084-0.365 0.216-0.484l0.001-0.001c0.12-0.114 0.282-0.184 0.461-0.184 0.005 0 0.010 0 0.015 0l-0.001-0c0.186 0.002 0.354 0.079 0.475 0.203l4.37 4.37 10.183-10.183c0.119-0.133 0.292-0.217 0.484-0.217s0.365 0.084 0.484 0.216l0.001 0.001c0.114 0.12 0.184 0.282 0.184 0.461 0 0.005-0 0.010-0 0.015l0-0.001c-0.002 0.186-0.079 0.354-0.203 0.475l-10.658 10.658c-0.109 0.125-0.269 0.204-0.447 0.204-0.010 0-0.020-0-0.029-0.001l0.001 0z"></path>
        </symbol>
        <symbol id="icon-feather-check-circle" viewBox="0 0 24 24">
            <path d="M22 10.1c-0.6 0-1 0.4-1 1v0.9c0 5-4 9-9 9 0 0 0 0 0 0-5 0-9-4-9-9s4-9 9-9c0 0 0 0 0 0 1.3 0 2.5 0.3 3.7 0.8 0.5 0.2 1.1 0 1.3-0.5s0-1.1-0.5-1.3c-1.4-0.6-2.9-1-4.5-1 0 0 0 0 0 0-6.1 0-11 4.9-11 11s4.9 11 11 11c0 0 0 0 0 0 6.1 0 11-4.9 11-11v-0.9c0-0.6-0.4-1-1-1z"></path>
            <path d="M9.7 10.3c-0.4-0.4-1-0.4-1.4 0s-0.4 1 0 1.4l3 3c0.2 0.2 0.4 0.3 0.7 0.3s0.5-0.1 0.7-0.3l10-10c0.4-0.4 0.4-1 0-1.4s-1-0.4-1.4 0l-9.3 9.3-2.3-2.3z"></path>
        </symbol>
        <symbol id="icon-feather-chevron-down" viewBox="0 0 24 24">
            <path d="M11.978 15.978c-0.194-0.012-0.368-0.091-0.5-0.215l-6.12-6.12c-0.131-0.127-0.213-0.304-0.214-0.5v-0c0.002-0.196 0.083-0.373 0.214-0.5l0-0c0.127-0.131 0.304-0.213 0.5-0.214h0c0.196 0.002 0.373 0.083 0.5 0.214l5.621 5.621 5.62-5.62c0.126-0.14 0.308-0.229 0.51-0.229s0.384 0.088 0.509 0.228l0.001 0.001c0.12 0.126 0.194 0.297 0.194 0.485 0 0.005-0 0.010-0 0.015l0-0.001c-0.002 0.196-0.083 0.373-0.214 0.5l-6.12 6.12c-0.132 0.123-0.306 0.202-0.497 0.214l-0.002 0z"></path>
        </symbol>
        <symbol id="icon-feather-clipboard" viewBox="0 0 24 24">
            <path d="M7 5c0 0.552 0.225 1.053 0.586 1.414s0.862 0.586 1.414 0.586h6c0.552 0 1.053-0.225 1.414-0.586s0.586-0.862 0.586-1.414h1c0.276 0 0.525 0.111 0.707 0.293s0.293 0.431 0.293 0.707v14c0 0.276-0.111 0.525-0.293 0.707s-0.431 0.293-0.707 0.293h-12c-0.276 0-0.525-0.111-0.707-0.293s-0.293-0.431-0.293-0.707v-14c0-0.276 0.111-0.525 0.293-0.707s0.431-0.293 0.707-0.293zM9 1c-0.552 0-1.053 0.225-1.414 0.586s-0.586 0.862-0.586 1.414h-1c-0.828 0-1.58 0.337-2.121 0.879s-0.879 1.293-0.879 2.121v14c0 0.828 0.337 1.58 0.879 2.121s1.293 0.879 2.121 0.879h12c0.828 0 1.58-0.337 2.121-0.879s0.879-1.293 0.879-2.121v-14c0-0.828-0.337-1.58-0.879-2.121s-1.293-0.879-2.121-0.879h-1c0-0.552-0.225-1.053-0.586-1.414s-0.862-0.586-1.414-0.586zM9 3h6v2h-6z"></path>
        </symbol>
        <symbol id="icon-feather-menu" viewBox="0 0 24 24">
            <path d="M2.596 12.733c-0.016 0.001-0.035 0.002-0.054 0.002-0.375 0-0.679-0.304-0.679-0.679 0-0.019 0.001-0.038 0.002-0.057l-0 0.002c-0.001-0.016-0.002-0.035-0.002-0.054 0-0.375 0.304-0.679 0.679-0.679 0.019 0 0.038 0.001 0.057 0.002l-0.002-0h18.808c0.016-0.001 0.035-0.002 0.054-0.002 0.375 0 0.679 0.304 0.679 0.679 0 0.019-0.001 0.038-0.002 0.057l0-0.002c0.001 0.016 0.002 0.035 0.002 0.054 0 0.375-0.304 0.679-0.679 0.679-0.019 0-0.038-0.001-0.057-0.002l0.002 0z"></path>
            <path d="M2.596 6.463c-0.016 0.001-0.035 0.002-0.054 0.002-0.375 0-0.679-0.304-0.679-0.679 0-0.019 0.001-0.038 0.002-0.057l-0 0.002c-0.001-0.016-0.002-0.035-0.002-0.054 0-0.375 0.304-0.679 0.679-0.679 0.019 0 0.038 0.001 0.057 0.002l-0.002-0h18.808c0.016-0.001 0.035-0.002 0.054-0.002 0.375 0 0.679 0.304 0.679 0.679 0 0.019-0.001 0.038-0.002 0.057l0-0.002c0.001 0.016 0.002 0.035 0.002 0.054 0 0.375-0.304 0.679-0.679 0.679-0.019 0-0.038-0.001-0.057-0.002l0.002 0z"></path>
            <path d="M2.596 19.002c-0.404 0-0.731-0.327-0.731-0.731s0.327-0.731 0.731-0.731h18.808c0.404 0 0.731 0.327 0.731 0.731s-0.327 0.731-0.731 0.731v0z"></path>
        </symbol>
        <symbol id="icon-feather-more-vertical" viewBox="0 0 24 24">
            <path d="M13.759 12c0 0.971-0.787 1.759-1.759 1.759s-1.759-0.787-1.759-1.759c0-0.971 0.787-1.759 1.759-1.759s1.759 0.787 1.759 1.759z"></path>
            <path d="M13.759 4.759c0 0.971-0.787 1.759-1.759 1.759s-1.759-0.787-1.759-1.759c0-0.971 0.787-1.759 1.759-1.759s1.759 0.787 1.759 1.759z"></path>
            <path d="M13.759 19.241c0 0.971-0.787 1.759-1.759 1.759s-1.759-0.787-1.759-1.759c0-0.971 0.787-1.759 1.759-1.759s1.759 0.787 1.759 1.759z"></path>
        </symbol>
        <symbol id="icon-feather-move" viewBox="0 0 32 32">
            <path d="M15.968 29.667c-0.233 0-0.233 0-0.349-0.116 0 0-0.116-0.116-0.116-0.116s-0.116-0.116-0.116-0.116l-3.838-3.838c-0.349-0.349-0.349-1.047 0-1.396 0.116-0.116 0.465-0.233 0.698-0.233s0.582 0.116 0.698 0.233l2.094 2.094v-9.305h-9.305l2.094 2.094c0.116 0.116 0.233 0.465 0.233 0.698s-0.116 0.582-0.233 0.698c-0.116 0.116-0.465 0.233-0.698 0.233s-0.582-0.116-0.698-0.233l-3.838-3.838c-0.116-0.116-0.116-0.116-0.233-0.349 0-0.233-0.116-0.465 0-0.698 0 0 0.116-0.116 0.116-0.116s0.116-0.116 0.116-0.116l3.838-3.838c0.116-0.116 0.349-0.233 0.698-0.233 0.233 0 0.465 0.116 0.698 0.349 0.116 0.116 0.233 0.465 0.233 0.698s-0.116 0.465-0.233 0.698l-2.094 2.094h9.305v-9.305l-2.094 2.094c-0.233 0.116-0.465 0.233-0.698 0.233-0.349 0-0.582-0.116-0.698-0.233-0.349-0.349-0.349-1.047 0-1.396l3.838-3.838c0.116-0.116 0.116-0.116 0.349-0.233 0.116 0 0.233 0 0.349 0s0.233 0 0.349 0c0 0 0.116 0.116 0.116 0.116s0.116 0.116 0.116 0.116l3.838 3.838c0.349 0.349 0.349 1.047 0 1.396-0.116 0.116-0.465 0.233-0.698 0.233s-0.582-0.116-0.698-0.233l-2.094-2.094v9.305h9.305l-2.21-2.094c-0.116-0.116-0.233-0.465-0.233-0.698s0.116-0.582 0.233-0.698c0.116-0.116 0.465-0.233 0.698-0.233s0.582 0.116 0.698 0.233l3.838 3.838c0.116 0.116 0.116 0.116 0.233 0.349 0.116 0.116 0.116 0.233 0.116 0.349 0 0.233 0 0.233-0.116 0.349 0 0 0 0 0 0s-0.116 0.116-0.116 0.116c0 0-0.116 0.116-0.116 0.116l-3.838 3.838c-0.116 0.116-0.465 0.233-0.698 0.233s-0.582-0.116-0.698-0.233c-0.349-0.349-0.349-1.047 0-1.396l2.094-2.094h-9.305v9.305l2.094-2.094c0.116-0.116 0.465-0.233 0.698-0.233s0.582 0.116 0.698 0.233c0.349 0.349 0.349 1.047 0 1.396l-3.838 3.838c-0.116 0.116-0.116 0.116-0.349 0.233 0 0-0.116 0-0.233 0z"></path>
        </symbol>
        <symbol id="icon-feather-plus-circle" viewBox="0 0 24 24">
            <path d="M12 23c-6.075 0-11-4.925-11-11s4.925-11 11-11c6.075 0 11 4.925 11 11v0c-0.006 6.073-4.927 10.994-10.999 11h-0.001zM12 2.439c-5.28 0-9.561 4.28-9.561 9.561s4.28 9.561 9.561 9.561c5.28 0 9.561-4.28 9.561-9.561v0c-0.006-5.278-4.283-9.555-9.56-9.561h-0.001z"></path>
            <path d="M12 16.832c-0.016 0.001-0.035 0.002-0.054 0.002-0.369 0-0.668-0.299-0.668-0.668 0-0.019 0.001-0.038 0.002-0.056l-0 0.002v-3.393h-3.393c-0.397 0-0.72-0.322-0.72-0.72s0.322-0.72 0.72-0.72h3.393v-3.393c0-0.397 0.322-0.72 0.72-0.72s0.72 0.322 0.72 0.72v0 3.393h3.393c0.397 0 0.72 0.322 0.72 0.72s-0.322 0.72-0.72 0.72h-3.393v3.393c0.001 0.016 0.002 0.035 0.002 0.054 0 0.369-0.299 0.668-0.668 0.668-0.019 0-0.037-0.001-0.056-0.002l0.002 0z"></path>
        </symbol>
        <symbol id="icon-feather-power" viewBox="0 0 24 24">
            <path d="M11.971 23.001c-2.757-0.020-5.252-1.122-7.086-2.902l0.003 0.002c-1.793-1.801-2.901-4.285-2.901-7.027 0-2.793 1.15-5.318 3.002-7.127l0.002-0.002c0.127-0.142 0.31-0.23 0.514-0.23s0.387 0.089 0.513 0.23l0.001 0.001c0.142 0.127 0.23 0.31 0.23 0.514s-0.089 0.387-0.23 0.513l-0.001 0.001c-1.543 1.542-2.498 3.674-2.498 6.028 0 4.707 3.816 8.522 8.522 8.522s8.522-3.816 8.522-8.522c0-2.354-0.955-4.486-2.498-6.028l-0-0c-0.132-0.132-0.213-0.313-0.213-0.514 0-0.401 0.325-0.727 0.727-0.727 0.201 0 0.382 0.081 0.514 0.213v0c1.804 1.817 2.919 4.32 2.919 7.083s-1.115 5.266-2.919 7.084l0.001-0.001c-1.842 1.783-4.354 2.883-7.123 2.889h-0.001z"></path>
            <path d="M11.971 12.721c-0.016 0.001-0.035 0.002-0.054 0.002-0.369 0-0.668-0.299-0.668-0.668 0-0.019 0.001-0.038 0.002-0.056l-0 0.002v-10.28c-0.001-0.016-0.002-0.035-0.002-0.054 0-0.369 0.299-0.668 0.668-0.668 0.019 0 0.038 0.001 0.056 0.002l-0.002-0c0.016-0.001 0.035-0.002 0.054-0.002 0.369 0 0.668 0.299 0.668 0.668 0 0.019-0.001 0.037-0.002 0.056l0-0.002v10.28c0.001 0.016 0.002 0.035 0.002 0.054 0 0.369-0.299 0.668-0.668 0.668-0.019 0-0.037-0.001-0.056-0.002l0.002 0z"></path>
        </symbol>
        <symbol id="icon-feather-slash" viewBox="0 0 24 24">
            <path d="M12 23c-6.075 0-11-4.925-11-11s4.925-11 11-11c6.075 0 11 4.925 11 11v0c0 0.039 0.001 0.084 0.001 0.13 0 3-1.223 5.715-3.197 7.673l-0.001 0.001c-2.002 1.976-4.754 3.197-7.792 3.197-0.004 0-0.008 0-0.012 0h0.001zM4.567 6.037c-1.324 1.566-2.129 3.608-2.129 5.837 0 0.044 0 0.088 0.001 0.132l-0-0.007c0.006 5.278 4.283 9.555 9.56 9.561h0.001c2.263-0.028 4.335-0.826 5.971-2.143l-0.019 0.015 0.267-0.216-13.436-13.426zM12 2.439c-0.037-0.001-0.081-0.001-0.125-0.001-2.23 0-4.272 0.805-5.851 2.14l0.013-0.011-0.247 0.216 13.426 13.426 0.216-0.247c1.324-1.566 2.129-3.608 2.129-5.837 0-0.044-0-0.088-0.001-0.132l0 0.007c-0.006-5.278-4.283-9.555-9.56-9.561h-0.001z"></path>
        </symbol>
        <symbol id="icon-feather-upload" viewBox="0 0 24 24">
            <path d="M4.773 22.002c-0.019 0-0.041 0.001-0.063 0.001-1.505 0-2.725-1.22-2.725-2.726 0-0.026 0-0.051 0.001-0.077l-0 0.004v-4.13c-0-0.007-0-0.015-0-0.023 0-0.371 0.3-0.671 0.671-0.671 0.018 0 0.036 0.001 0.054 0.002l-0.002-0c0.016-0.001 0.035-0.002 0.054-0.002 0.371 0 0.671 0.3 0.671 0.671 0 0.019-0.001 0.038-0.002 0.056l0-0.002v4.13c-0.001 0.019-0.002 0.041-0.002 0.064 0 0.707 0.573 1.28 1.28 1.28 0.022 0 0.045-0.001 0.067-0.002l-0.003 0h14.453c0.019 0.001 0.041 0.002 0.064 0.002 0.707 0 1.28-0.573 1.28-1.28 0-0.022-0.001-0.045-0.002-0.067l0 0.003v-4.13c0-0.399 0.324-0.723 0.723-0.723s0.723 0.324 0.723 0.723v0 4.13c0 0.019 0.001 0.041 0.001 0.063 0 1.505-1.22 2.726-2.726 2.726-0.022 0-0.044-0-0.066-0.001l0.003 0z"></path>
            <path d="M12 15.807c-0.016 0.001-0.035 0.002-0.054 0.002-0.371 0-0.671-0.3-0.671-0.671 0-0.019 0.001-0.038 0.002-0.056l-0 0.002v-10.665l-3.933 3.933c-0.127 0.142-0.311 0.231-0.516 0.231s-0.389-0.089-0.516-0.231l-0.001-0.001c-0.142-0.127-0.231-0.311-0.231-0.516s0.089-0.389 0.231-0.516l0.001-0.001 5.162-5.162c0.103-0.052 0.191-0.107 0.273-0.169l-0.005 0.004c0.045-0.006 0.097-0.010 0.15-0.010s0.105 0.004 0.156 0.011l-0.006-0.001c0.040-0.011 0.087-0.017 0.134-0.017s0.094 0.006 0.138 0.018l-0.004-0.001h0.134s0 0.072 0.093 0.114l5.162 5.162c0.142 0.127 0.231 0.311 0.231 0.516s-0.089 0.389-0.231 0.516l-0.001 0.001c-0.127 0.142-0.311 0.231-0.516 0.231s-0.389-0.089-0.516-0.231l-0.001-0.001-3.944-3.882v10.654c0.002 0.019 0.003 0.042 0.003 0.064 0 0.371-0.3 0.671-0.671 0.671-0.019 0-0.038-0.001-0.057-0.002l0.002 0z"></path>
        </symbol>
        <symbol id="icon-feather-x" viewBox="0 0 24 24">
            <path d="M18.274 19.005c-0.199-0.012-0.377-0.094-0.513-0.22l-5.761-5.761-5.761 5.761c-0.118 0.135-0.29 0.22-0.482 0.22-0.011 0-0.021-0-0.032-0.001l0.001 0c-0.009 0-0.020 0.001-0.030 0.001-0.192 0-0.365-0.085-0.481-0.219l-0.001-0.001c-0.144-0.129-0.234-0.315-0.234-0.523s0.090-0.394 0.234-0.522l0.001-0.001 5.761-5.74-5.761-5.761c-0.144-0.129-0.234-0.315-0.234-0.523s0.090-0.394 0.234-0.522l0.001-0.001c0.129-0.123 0.304-0.199 0.497-0.199 0.005 0 0.011 0 0.016 0l-0.001-0c0.201 0.002 0.382 0.085 0.512 0.219l5.761 5.761 5.761-5.761c0.129-0.144 0.315-0.234 0.523-0.234s0.394 0.090 0.522 0.234l0.001 0.001c0.144 0.129 0.234 0.315 0.234 0.523s-0.090 0.394-0.234 0.522l-0.001 0.001-5.782 5.74 5.761 5.761c0.144 0.129 0.234 0.315 0.234 0.523s-0.090 0.394-0.234 0.522l-0.001 0.001c-0.137 0.118-0.316 0.192-0.511 0.199l-0.001 0z"></path>
        </symbol>
        <!-- Font Awesome -->
        <symbol id="icon-fa-building-o" viewBox="0 0 25 32">
            <path d="M0.977 32c-0.464 0-0.928-0.464-0.928-0.928v-30.145c0-0.464 0.464-0.928 0.928-0.928h23.188c0.464 0 0.928 0.464 0.928 0.928v30.145c0 0.464-0.464 0.928-0.928 0.928h-23.188zM15.47 25.507c0.232 0 0.348 0.116 0.348 0.348v4.29h7.42v-28.29h-21.333v28.29h7.42v-4.29c0-0.232 0.116-0.348 0.348-0.348h5.797zM18.948 25.043c-0.232 0-0.348-0.116-0.348-0.348v-1.159c0-0.232 0.116-0.348 0.348-0.348h1.159c0.232 0 0.348 0.116 0.348 0.348v1.159c0 0.232-0.116 0.348-0.348 0.348h-1.159zM5.035 25.043c-0.232 0-0.348-0.116-0.348-0.348v-1.159c0-0.232 0.116-0.348 0.348-0.348h1.159c0.232 0 0.348 0.116 0.348 0.348v1.159c0 0.232-0.116 0.348-0.348 0.348h-1.159zM18.948 20.406c-0.232 0-0.348-0.116-0.348-0.348v-1.159c0-0.232 0.116-0.348 0.348-0.348h1.159c0.232 0 0.348 0.116 0.348 0.348v1.159c0 0.232-0.116 0.348-0.348 0.348h-1.159zM14.31 20.406c-0.232 0-0.348-0.116-0.348-0.348v-1.159c0-0.232 0.116-0.348 0.348-0.348h1.159c0.232 0 0.348 0.116 0.348 0.348v1.159c0 0.232-0.116 0.348-0.348 0.348h-1.159zM9.673 20.406c-0.232 0-0.348-0.116-0.348-0.348v-1.159c0-0.232 0.116-0.348 0.348-0.348h1.159c0.232 0 0.348 0.116 0.348 0.348v1.159c0 0.232-0.116 0.348-0.348 0.348h-1.159zM5.035 20.406c-0.232 0-0.348-0.116-0.348-0.348v-1.159c0-0.232 0.116-0.348 0.348-0.348h1.159c0.232 0 0.348 0.116 0.348 0.348v1.159c0 0.232-0.116 0.348-0.348 0.348h-1.159zM18.948 15.768c-0.232 0-0.348-0.116-0.348-0.348v-1.159c0-0.232 0.116-0.348 0.348-0.348h1.159c0.232 0 0.348 0.116 0.348 0.348v1.159c0 0.232-0.116 0.348-0.348 0.348h-1.159zM14.31 15.768c-0.232 0-0.348-0.116-0.348-0.348v-1.159c0-0.232 0.116-0.348 0.348-0.348h1.159c0.232 0 0.348 0.116 0.348 0.348v1.159c0 0.232-0.116 0.348-0.348 0.348h-1.159zM9.673 15.768c-0.232 0-0.348-0.116-0.348-0.348v-1.159c0-0.232 0.116-0.348 0.348-0.348h1.159c0.232 0 0.348 0.116 0.348 0.348v1.159c0 0.232-0.116 0.348-0.348 0.348h-1.159zM5.035 15.768c-0.232 0-0.348-0.116-0.348-0.348v-1.159c0-0.232 0.116-0.348 0.348-0.348h1.159c0.232 0 0.348 0.116 0.348 0.348v1.159c0 0.232-0.116 0.348-0.348 0.348h-1.159zM18.948 11.13c-0.232 0-0.348-0.116-0.348-0.348v-1.159c0-0.232 0.116-0.348 0.348-0.348h1.159c0.232 0 0.348 0.116 0.348 0.348v1.159c0 0.232-0.116 0.348-0.348 0.348h-1.159zM14.31 11.13c-0.232 0-0.348-0.116-0.348-0.348v-1.159c0-0.232 0.116-0.348 0.348-0.348h1.159c0.232 0 0.348 0.116 0.348 0.348v1.159c0 0.232-0.116 0.348-0.348 0.348h-1.159zM9.673 11.13c-0.232 0-0.348-0.116-0.348-0.348v-1.159c0-0.232 0.116-0.348 0.348-0.348h1.159c0.232 0 0.348 0.116 0.348 0.348v1.159c0 0.232-0.116 0.348-0.348 0.348h-1.159zM5.035 11.13c-0.232 0-0.348-0.116-0.348-0.348v-1.159c0-0.232 0.116-0.348 0.348-0.348h1.159c0.232 0 0.348 0.116 0.348 0.348v1.159c0 0.232-0.116 0.348-0.348 0.348h-1.159zM18.948 6.493c-0.232 0-0.348-0.116-0.348-0.348v-1.159c0-0.232 0.116-0.348 0.348-0.348h1.159c0.232 0 0.348 0.116 0.348 0.348v1.159c0 0.232-0.116 0.348-0.348 0.348h-1.159zM14.31 6.493c-0.232 0-0.348-0.116-0.348-0.348v-1.159c0-0.232 0.116-0.348 0.348-0.348h1.159c0.232 0 0.348 0.116 0.348 0.348v1.159c0 0.232-0.116 0.348-0.348 0.348h-1.159zM9.673 6.493c-0.232 0-0.348-0.116-0.348-0.348v-1.159c0-0.232 0.116-0.348 0.348-0.348h1.159c0.232 0 0.348 0.116 0.348 0.348v1.159c0 0.232-0.116 0.348-0.348 0.348h-1.159zM5.035 6.493c-0.232 0-0.348-0.116-0.348-0.348v-1.159c0-0.232 0.116-0.348 0.348-0.348h1.159c0.232 0 0.348 0.116 0.348 0.348v1.159c0 0.232-0.116 0.348-0.348 0.348h-1.159z"></path>
        </symbol>
        <symbol id="icon-fa-spinner" viewBox="0 0 28 28">
            <path d="M13.9 27.125c-1.797 0-3.254-1.457-3.254-3.254s1.457-3.254 3.254-3.254c1.797 0 3.254 1.457 3.254 3.254v0c-0.005 1.795-1.459 3.249-3.254 3.254h-0zM6.285 23.979c-1.797 0-3.254-1.457-3.254-3.254s1.457-3.254 3.254-3.254c1.797 0 3.254 1.457 3.254 3.254v0c-0.005 1.795-1.459 3.249-3.254 3.254h-0zM21.507 23.080c-1.301 0-2.355-1.055-2.355-2.355s1.055-2.355 2.355-2.355c1.301 0 2.355 1.055 2.355 2.355v0c-0.005 1.299-1.056 2.351-2.355 2.355h-0zM24.661 14.757c-0.919 0-1.665-0.745-1.665-1.665s0.745-1.665 1.665-1.665c0.919 0 1.665 0.745 1.665 1.665v0c0 0.010 0 0.022 0 0.033 0 0.919-0.745 1.665-1.665 1.665-0 0-0 0-0 0h0zM3.139 14.566c-0.809 0-1.465-0.656-1.465-1.465s0.656-1.465 1.465-1.465c0.809 0 1.465 0.656 1.465 1.465v0c0 0.809-0.656 1.465-1.465 1.465v0zM21.507 6.959c-0.809 0-1.465-0.656-1.465-1.465s0.656-1.465 1.465-1.465c0.809 0 1.465 0.656 1.465 1.465v0c0 0.809-0.656 1.465-1.465 1.465v0zM6.285 6.959c-0.809 0-1.465-0.656-1.465-1.465s0.656-1.465 1.465-1.465c0.809 0 1.465 0.656 1.465 1.465v0c0 0.809-0.656 1.465-1.465 1.465v0zM13.9 3.805c-0.809 0-1.465-0.656-1.465-1.465s0.656-1.465 1.465-1.465c0.809 0 1.465 0.656 1.465 1.465v0c0 0.809-0.656 1.465-1.465 1.465v0z"></path>
        </symbol>
        <symbol id="icon-fa-whatsapp" viewBox="0 0 24 28">
          <path d="M15.391 15.219c0.266 0 2.812 1.328 2.922 1.516 0.031 0.078 0.031 0.172 0.031 0.234 0 0.391-0.125 0.828-0.266 1.188-0.359 0.875-1.813 1.437-2.703 1.437-0.75 0-2.297-0.656-2.969-0.969-2.234-1.016-3.625-2.75-4.969-4.734-0.594-0.875-1.125-1.953-1.109-3.031v-0.125c0.031-1.031 0.406-1.766 1.156-2.469 0.234-0.219 0.484-0.344 0.812-0.344 0.187 0 0.375 0.047 0.578 0.047 0.422 0 0.5 0.125 0.656 0.531 0.109 0.266 0.906 2.391 0.906 2.547 0 0.594-1.078 1.266-1.078 1.625 0 0.078 0.031 0.156 0.078 0.234 0.344 0.734 1 1.578 1.594 2.141 0.719 0.688 1.484 1.141 2.359 1.578 0.109 0.063 0.219 0.109 0.344 0.109 0.469 0 1.25-1.516 1.656-1.516zM12.219 23.5c5.406 0 9.812-4.406 9.812-9.812s-4.406-9.812-9.812-9.812-9.812 4.406-9.812 9.812c0 2.063 0.656 4.078 1.875 5.75l-1.234 3.641 3.781-1.203c1.594 1.047 3.484 1.625 5.391 1.625zM12.219 1.906c6.5 0 11.781 5.281 11.781 11.781s-5.281 11.781-11.781 11.781c-1.984 0-3.953-0.5-5.703-1.469l-6.516 2.094 2.125-6.328c-1.109-1.828-1.687-3.938-1.687-6.078 0-6.5 5.281-11.781 11.781-11.781z"></path>
        </symbol>
    </defs>
</svg>
