<svg width="815" height="320" viewBox="0 0 815 320" fill="none" xmlns="http://www.w3.org/2000/svg">
<path d="M123.822 227.268V319.5C49.9464 279.003 27.0164 242.513 13.2959 190.68L102.479 247.849L123.822 227.268Z" fill="url(#paint0_linear_768_139)"/>
<path d="M123.338 178V55C155.694 65.0545 178.257 70.4822 222.338 79.6L123.338 178Z" fill="#2A74A0"/>
<path d="M11.3375 178.484C7.96398 178.346 -1.94376 107.833 0.337498 85.4899C49.697 78.5909 76.4763 70.8038 123.822 55V178.484L101.338 237.5C101.338 237.5 14.711 178.623 11.3375 178.484Z" fill="url(#paint1_linear_768_139)"/>
<path d="M11.3375 178.484C7.96398 178.346 -1.94376 107.833 0.337498 85.4899C49.697 78.5909 76.4763 70.8038 123.822 55V178.484L101.338 237.5C101.338 237.5 14.711 178.623 11.3375 178.484Z" fill="url(#paint2_linear_768_139)"/>
<path d="M246.543 104.546C239.683 221.17 214.705 269.781 123.821 319.5V224.981L246.543 104.546Z" fill="url(#paint3_linear_768_139)"/>
<g filter="url(#filter0_d_768_139)">
<path d="M46.0726 151.043L21.6807 186.106L100.954 238.702L262.551 75.5806C188.957 119.175 153.846 143.382 100.954 186.106L46.0726 151.043Z" fill="#F5F5F5"/>
<path d="M265.037 78.0435L103.44 241.165L101.416 243.208L99.0195 241.618L19.7461 189.023L16.7646 187.044L18.8076 184.108L43.1992 149.044L45.1211 146.282L47.957 148.093L100.719 181.802C152.681 139.932 187.969 115.692 260.768 72.5688L265.037 78.0435Z" stroke="#224C98" stroke-width="7"/>
</g>
<mask id="path-7-outside-1_768_139" maskUnits="userSpaceOnUse" x="278.338" y="65" width="537" height="205" fill="black">
<rect fill="white" x="278.338" y="65" width="537" height="205"/>
<path d="M419.306 263H285.991V72.7676H345.953V213.996H419.306V263ZM590.729 263H442.196V72.7676H590.729V119.337H500.635V144.295H571.858V190.864H500.635V216.431H590.729V263ZM699.973 204.865L664.97 263H600.139L664.361 167.732L601.965 72.7676H668.318L700.582 127.859L734.062 72.7676H799.502L736.497 165.905L801.329 263H734.671L699.973 204.865Z"/>
</mask>
<path d="M419.306 263H285.991V72.7676H345.953V213.996H419.306V263ZM590.729 263H442.196V72.7676H590.729V119.337H500.635V144.295H571.858V190.864H500.635V216.431H590.729V263ZM699.973 204.865L664.97 263H600.139L664.361 167.732L601.965 72.7676H668.318L700.582 127.859L734.062 72.7676H799.502L736.497 165.905L801.329 263H734.671L699.973 204.865Z" fill="#F5F5F5"/>
<path d="M419.306 263V270H426.306V263H419.306ZM285.991 263H278.991V270H285.991V263ZM285.991 72.7676V65.7676H278.991V72.7676H285.991ZM345.953 72.7676H352.953V65.7676H345.953V72.7676ZM345.953 213.996H338.953V220.996H345.953V213.996ZM419.306 213.996H426.306V206.996H419.306V213.996ZM419.306 263V256H285.991V263V270H419.306V263ZM285.991 263H292.991V72.7676H285.991H278.991V263H285.991ZM285.991 72.7676V79.7676H345.953V72.7676V65.7676H285.991V72.7676ZM345.953 72.7676H338.953V213.996H345.953H352.953V72.7676H345.953ZM345.953 213.996V220.996H419.306V213.996V206.996H345.953V213.996ZM419.306 213.996H412.306V263H419.306H426.306V213.996H419.306ZM590.729 263V270H597.729V263H590.729ZM442.196 263H435.196V270H442.196V263ZM442.196 72.7676V65.7676H435.196V72.7676H442.196ZM590.729 72.7676H597.729V65.7676H590.729V72.7676ZM590.729 119.337V126.337H597.729V119.337H590.729ZM500.635 119.337V112.337H493.635V119.337H500.635ZM500.635 144.295H493.635V151.295H500.635V144.295ZM571.858 144.295H578.858V137.295H571.858V144.295ZM571.858 190.864V197.864H578.858V190.864H571.858ZM500.635 190.864V183.864H493.635V190.864H500.635ZM500.635 216.431H493.635V223.431H500.635V216.431ZM590.729 216.431H597.729V209.431H590.729V216.431ZM590.729 263V256H442.196V263V270H590.729V263ZM442.196 263H449.196V72.7676H442.196H435.196V263H442.196ZM442.196 72.7676V79.7676H590.729V72.7676V65.7676H442.196V72.7676ZM590.729 72.7676H583.729V119.337H590.729H597.729V72.7676H590.729ZM590.729 119.337V112.337H500.635V119.337V126.337H590.729V119.337ZM500.635 119.337H493.635V144.295H500.635H507.635V119.337H500.635ZM500.635 144.295V151.295H571.858V144.295V137.295H500.635V144.295ZM571.858 144.295H564.858V190.864H571.858H578.858V144.295H571.858ZM571.858 190.864V183.864H500.635V190.864V197.864H571.858V190.864ZM500.635 190.864H493.635V216.431H500.635H507.635V190.864H500.635ZM500.635 216.431V223.431H590.729V216.431V209.431H500.635V216.431ZM590.729 216.431H583.729V263H590.729H597.729V216.431H590.729ZM699.973 204.865L705.984 201.277L699.999 191.251L693.976 201.254L699.973 204.865ZM664.97 263V270H668.926L670.967 266.611L664.97 263ZM600.139 263L594.335 259.087L586.978 270H600.139V263ZM664.361 167.732L670.166 171.644L672.77 167.781L670.211 163.888L664.361 167.732ZM601.965 72.7676V65.7676H588.99L596.115 76.6115L601.965 72.7676ZM668.318 72.7676L674.358 69.2302L672.331 65.7676H668.318V72.7676ZM700.582 127.859L694.541 131.396L700.47 141.521L706.563 131.494L700.582 127.859ZM734.062 72.7676V65.7676H730.125L728.08 69.1322L734.062 72.7676ZM799.502 72.7676L805.3 76.6898L812.689 65.7676H799.502V72.7676ZM736.497 165.905L730.699 161.983L728.063 165.88L730.676 169.793L736.497 165.905ZM801.329 263V270H814.42L807.15 259.113L801.329 263ZM734.671 263L728.66 266.588L730.697 270H734.671V263ZM699.973 204.865L693.976 201.254L658.973 259.389L664.97 263L670.967 266.611L705.97 208.476L699.973 204.865ZM664.97 263V256H600.139V263V270H664.97V263ZM600.139 263L605.943 266.913L670.166 171.644L664.361 167.732L658.557 163.819L594.335 259.087L600.139 263ZM664.361 167.732L670.211 163.888L607.815 68.9238L601.965 72.7676L596.115 76.6115L658.511 171.576L664.361 167.732ZM601.965 72.7676V79.7676H668.318V72.7676V65.7676H601.965V72.7676ZM668.318 72.7676L662.278 76.3051L694.541 131.396L700.582 127.859L706.622 124.321L674.358 69.2302L668.318 72.7676ZM700.582 127.859L706.563 131.494L740.044 76.4031L734.062 72.7676L728.08 69.1322L694.6 124.223L700.582 127.859ZM734.062 72.7676V79.7676H799.502V72.7676V65.7676H734.062V72.7676ZM799.502 72.7676L793.704 68.8455L730.699 161.983L736.497 165.905L742.295 169.828L805.3 76.6898L799.502 72.7676ZM736.497 165.905L730.676 169.793L795.507 266.887L801.329 263L807.15 259.113L742.319 162.018L736.497 165.905ZM801.329 263V256H734.671V263V270H801.329V263ZM734.671 263L740.682 259.412L705.984 201.277L699.973 204.865L693.962 208.453L728.66 266.588L734.671 263Z" fill="#224C98" mask="url(#path-7-outside-1_768_139)"/>
<path d="M299.225 313.248H279.972V284.666H287.243V307.165H299.225V313.248ZM323.714 313.248H302.816V284.666H323.714V290.52H309.95V296.007H321.016V301.815H309.95V307.394H323.714V313.248ZM352.784 311.281C349.675 312.973 345.605 313.934 341.443 313.934C332.297 313.934 326.078 308.492 326.078 299.071C326.078 289.697 332.114 283.98 341.489 283.98C345.147 283.98 349.492 284.804 352.236 286.45L349.949 292.532C347.251 290.977 344.462 290.154 341.718 290.154C336.596 290.154 333.303 293.584 333.303 298.888C333.303 304.605 336.184 307.989 341.626 307.989C343.273 307.989 345.01 307.623 346.199 307.12V302.913H339.157V297.151H352.784V311.281ZM373.94 284.666L383.909 313.248H376.684L374.58 307.165H363.971L361.913 313.248H354.687L364.84 284.666H373.94ZM372.979 301.495L369.321 290.291L365.525 301.495H372.979ZM405.291 313.248H386.039V284.666H393.31V307.165H405.291V313.248ZM439.272 313.248H418.373V284.666H439.272V290.52H425.507V296.007H436.574V301.815H425.507V307.394H439.272V313.248ZM454.977 303.507L448.803 313.248H440.846L450.678 298.934L441.12 284.666H449.306L455.068 293.95L460.967 284.666H469.061L459.412 298.66L469.336 313.248H461.059L454.977 303.507ZM494.649 294.59C494.649 301.266 490.121 304.925 481.936 304.925L479.146 304.97V313.248H471.875V284.666C471.875 284.666 482.393 284.666 482.439 284.666C490.442 284.666 494.649 288.691 494.649 294.59ZM487.423 294.773C487.423 291.892 485.548 290.428 481.89 290.428C481.204 290.428 478.963 290.428 478.963 290.428V299.346L481.89 299.3C485.64 299.254 487.423 297.654 487.423 294.773ZM519.011 313.248H498.113V284.666H519.011V290.52H505.247V296.007H516.313V301.815H505.247V307.394H519.011V313.248ZM530.326 303.919V313.248H523.055V284.666C523.055 284.666 534.808 284.666 534.533 284.666C542.124 284.666 546.103 288.188 546.103 293.721C546.103 297.562 544.091 300.489 540.25 301.952L547.566 313.248H539.381L533.664 303.644L530.326 303.919ZM530.189 298.523L533.847 298.431C536.957 298.202 538.649 296.922 538.649 294.178C538.649 291.663 536.911 290.428 533.253 290.428C533.116 290.428 530.189 290.428 530.189 290.428V298.523ZM557.681 313.248H550.41V284.666H557.681V313.248ZM583.701 313.248H562.803V284.666H583.701V290.52H569.936V296.007H581.003V301.815H569.936V307.394H583.701V313.248ZM607.5 303.233V284.666H614.314V313.522H606.586L594.559 294.727V313.248H587.745V284.666H595.611L607.5 303.233ZM643.03 286.13L640.834 292.212C638.685 290.931 636.17 290.154 633.609 290.154C628.67 290.154 625.469 293.492 625.469 298.888C625.469 304.33 628.487 307.76 633.655 307.76C636.444 307.76 639.051 306.845 641.2 305.428L642.709 311.876C640.469 313.11 636.673 313.934 633.335 313.934C624.189 313.934 618.152 308.675 618.152 299.071C618.152 289.834 624.143 283.98 633.563 283.98C637.039 283.98 640.423 284.849 643.03 286.13ZM667.371 313.248H646.472V284.666H667.371V290.52H653.606V296.007H664.673V301.815H653.606V307.394H667.371V313.248Z" fill="#2A97DC"/>
<path d="M690.417 307.943C692.978 307.943 694.761 306.983 694.761 305.245C694.761 303.324 692.704 302.684 688.908 301.632C684.747 300.489 679.716 298.568 679.716 292.852C679.716 287.547 683.603 284.026 690.691 284.026C695.173 284.026 698.648 285.032 701.392 286.541L699.975 292.532C697.139 291.023 693.572 290.017 690.737 290.017C688.222 290.017 686.987 290.886 686.987 292.44C686.987 294.315 689.594 295.047 693.024 296.007C697.414 297.196 701.987 299.208 701.987 304.65C701.987 310.092 697.78 313.934 690.28 313.934C686.027 313.934 681.911 312.836 679.259 311.327L680.631 305.291C683.466 306.8 686.896 307.943 690.417 307.943ZM729.491 286.13L727.296 292.212C725.147 290.931 722.632 290.154 720.071 290.154C715.132 290.154 711.931 293.492 711.931 298.888C711.931 304.33 714.949 307.76 720.116 307.76C722.906 307.76 725.513 306.845 727.662 305.428L729.171 311.876C726.93 313.11 723.135 313.934 719.796 313.934C710.65 313.934 704.614 308.675 704.614 299.071C704.614 289.834 710.605 283.98 720.025 283.98C723.5 283.98 726.884 284.849 729.491 286.13ZM760.849 298.843C760.849 307.897 754.31 313.934 745.804 313.934C737.344 313.934 730.896 308.675 730.896 299.026C730.896 289.971 737.39 283.98 745.896 283.98C754.401 283.98 760.849 289.194 760.849 298.843ZM753.532 299.026C753.532 293.538 750.651 289.834 745.804 289.834C740.957 289.834 738.213 293.492 738.213 298.843C738.213 304.33 741.048 308.08 745.941 308.08C750.743 308.08 753.532 304.376 753.532 299.026ZM771.98 303.919V313.248H764.709V284.666C764.709 284.666 776.461 284.666 776.187 284.666C783.778 284.666 787.757 288.188 787.757 293.721C787.757 297.562 785.744 300.489 781.903 301.952L789.22 313.248H781.034L775.318 303.644L771.98 303.919ZM771.843 298.523L775.501 298.431C778.611 298.202 780.303 296.922 780.303 294.178C780.303 291.663 778.565 290.428 774.907 290.428C774.769 290.428 771.843 290.428 771.843 290.428V298.523ZM812.917 313.248H792.018V284.666H812.917V290.52H799.152V296.007H810.219V301.815H799.152V307.394H812.917V313.248Z" fill="#62A550"/>
<path d="M184.377 217.138C184.377 219.299 182.636 221.05 180.489 221.05C178.342 221.05 176.602 219.299 176.602 217.138C176.602 214.978 178.342 213.226 180.489 213.226C182.636 213.226 184.377 214.978 184.377 217.138Z" fill="#F5F5F5"/>
<path d="M193.144 217.138C193.144 219.252 191.441 220.965 189.341 220.965C187.241 220.965 185.538 219.252 185.538 217.138C185.538 215.025 187.241 213.311 189.341 213.311C191.441 213.311 193.144 215.025 193.144 217.138Z" fill="#F5F5F5"/>
<path d="M202.19 217.138C202.19 219.329 200.425 221.105 198.248 221.105C196.07 221.105 194.305 219.329 194.305 217.138C194.305 214.947 196.07 213.171 198.248 213.171C200.425 213.171 202.19 214.947 202.19 217.138Z" fill="#F5F5F5"/>
<path d="M184.336 226.327C184.336 228.488 182.595 230.239 180.448 230.239C178.301 230.239 176.561 228.488 176.561 226.327C176.561 224.167 178.301 222.415 180.448 222.415C182.595 222.415 184.336 224.167 184.336 226.327Z" fill="#F5F5F5"/>
<path d="M184.34 235.599C184.34 237.759 182.599 239.511 180.452 239.511C178.305 239.511 176.565 237.759 176.565 235.599C176.565 233.438 178.305 231.687 180.452 231.687C182.599 231.687 184.34 233.438 184.34 235.599Z" fill="#F5F5F5"/>
<path d="M193.187 226.327C193.187 228.488 191.447 230.239 189.3 230.239C187.153 230.239 185.412 228.488 185.412 226.327C185.412 224.167 187.153 222.415 189.3 222.415C191.447 222.415 193.187 224.167 193.187 226.327Z" fill="#F5F5F5"/>
<path d="M193.228 235.601C193.228 237.761 191.488 239.512 189.341 239.512C187.194 239.512 185.454 237.761 185.454 235.601C185.454 233.441 187.194 231.689 189.341 231.689C191.488 231.689 193.228 233.441 193.228 235.601Z" fill="#F5F5F5"/>
<path d="M202.149 226.383C202.149 228.574 200.384 230.35 198.206 230.35C196.029 230.35 194.264 228.574 194.264 226.383C194.264 224.192 196.029 222.415 198.206 222.415C200.384 222.415 202.149 224.192 202.149 226.383Z" fill="#F5F5F5"/>
<circle cx="181.5" cy="222.5" r="21.128" stroke="#F5F5F5" stroke-width="2.7439"/>
<defs>
<filter id="filter0_d_768_139" x="1.84766" y="63.5581" width="289.676" height="212.157" filterUnits="userSpaceOnUse" color-interpolation-filters="sRGB">
<feFlood flood-opacity="0" result="BackgroundImageFix"/>
<feColorMatrix in="SourceAlpha" type="matrix" values="0 0 0 0 0 0 0 0 0 0 0 0 0 0 0 0 0 0 127 0" result="hardAlpha"/>
<feOffset dx="7" dy="11"/>
<feGaussianBlur stdDeviation="8.5"/>
<feComposite in2="hardAlpha" operator="out"/>
<feColorMatrix type="matrix" values="0 0 0 0 0 0 0 0 0 0 0 0 0 0 0 0 0 0 0.1 0"/>
<feBlend mode="normal" in2="BackgroundImageFix" result="effect1_dropShadow_768_139"/>
<feBlend mode="normal" in="SourceGraphic" in2="effect1_dropShadow_768_139" result="shape"/>
</filter>
<linearGradient id="paint0_linear_768_139" x1="46.0726" y1="237.177" x2="176.338" y2="288.5" gradientUnits="userSpaceOnUse">
<stop offset="0.124196" stop-color="#6DB655"/>
<stop offset="1" stop-color="#075A49"/>
</linearGradient>
<linearGradient id="paint1_linear_768_139" x1="36.1635" y1="55" x2="183.838" y2="100.5" gradientUnits="userSpaceOnUse">
<stop offset="0.694159" stop-color="#399DD9"/>
<stop offset="1" stop-color="#1E5373"/>
</linearGradient>
<linearGradient id="paint2_linear_768_139" x1="107.053" y1="55" x2="62.08" y2="203.638" gradientUnits="userSpaceOnUse">
<stop offset="0.0817308" stop-color="#68B8E7"/>
<stop offset="0.524038" stop-color="#399DD9" stop-opacity="0"/>
</linearGradient>
<linearGradient id="paint3_linear_768_139" x1="130.682" y1="284.436" x2="235.872" y2="135.036" gradientUnits="userSpaceOnUse">
<stop stop-color="#045849"/>
<stop offset="1" stop-color="#4F984D"/>
</linearGradient>
</defs>
</svg>
