<svg width="805" height="320" viewBox="0 0 805 320" fill="none" xmlns="http://www.w3.org/2000/svg">
<path d="M123.822 227.268V319.5C49.9464 279.003 27.0164 242.513 13.2959 190.68L102.479 247.849L123.822 227.268Z" fill="url(#paint0_linear_768_139)"/>
<path d="M123.338 178V55C155.694 65.0545 178.257 70.4822 222.338 79.6L123.338 178Z" fill="#2A74A0"/>
<path d="M11.3375 178.484C7.96398 178.346 -1.94376 107.833 0.337498 85.4899C49.697 78.5909 76.4763 70.8038 123.822 55V178.484L101.338 237.5C101.338 237.5 14.711 178.623 11.3375 178.484Z" fill="url(#paint1_linear_768_139)"/>
<path d="M11.3375 178.484C7.96398 178.346 -1.94376 107.833 0.337498 85.4899C49.697 78.5909 76.4763 70.8038 123.822 55V178.484L101.338 237.5C101.338 237.5 14.711 178.623 11.3375 178.484Z" fill="url(#paint2_linear_768_139)"/>
<path d="M246.543 104.546C239.683 221.17 214.705 269.781 123.821 319.5V224.981L246.543 104.546Z" fill="url(#paint3_linear_768_139)"/>
<g filter="url(#filter0_d_768_139)">
<path d="M46.0726 151.043L21.6807 186.106L100.954 238.702L262.551 75.5806C188.957 119.175 153.846 143.382 100.954 186.106L46.0726 151.043Z" fill="#F5F5F5"/>
</g>
<path d="M419.306 263H285.991V72.7676H345.953V213.996H419.306V263ZM590.729 263H442.196V72.7676H590.729V119.337H500.635V144.295H571.858V190.864H500.635V216.431H590.729V263ZM699.973 204.865L664.97 263H600.139L664.361 167.732L601.965 72.7676H668.318L700.582 127.859L734.062 72.7676H799.502L736.497 165.905L801.329 263H734.671L699.973 204.865Z" fill="#F5F5F5"/>
<path d="M305.481 312.017H286.873V284.392H293.901V306.138H305.481V312.017ZM329.152 312.017H308.952V284.392H329.152V290.049H315.847V295.353H326.544V300.967H315.847V306.359H329.152V312.017ZM357.249 310.116C354.243 311.751 350.309 312.68 346.287 312.68C337.447 312.68 331.436 307.42 331.436 298.315C331.436 289.254 337.27 283.729 346.331 283.729C349.867 283.729 354.066 284.524 356.718 286.115L354.508 291.994C351.901 290.491 349.204 289.696 346.552 289.696C341.602 289.696 338.42 293.011 338.42 298.138C338.42 303.663 341.204 306.934 346.464 306.934C348.055 306.934 349.735 306.58 350.884 306.094V302.027H344.077V296.458H357.249V310.116ZM377.696 284.392L387.332 312.017H380.348L378.315 306.138H368.061L366.072 312.017H359.088L368.901 284.392H377.696ZM376.768 300.657L373.232 289.828L369.564 300.657H376.768ZM407.999 312.017H389.391V284.392H396.419V306.138H407.999V312.017ZM440.842 312.017H420.643V284.392H440.842V290.049H427.538V295.353H438.235V300.967H427.538V306.359H440.842V312.017ZM456.022 302.602L450.055 312.017H442.364L451.867 298.182L442.629 284.392H450.541L456.11 293.364L461.812 284.392H469.636L460.309 297.917L469.901 312.017H461.901L456.022 302.602ZM494.367 293.983C494.367 300.436 489.991 303.972 482.079 303.972L479.383 304.016V312.017H472.355V284.392C472.355 284.392 482.521 284.392 482.565 284.392C490.3 284.392 494.367 288.281 494.367 293.983ZM487.383 294.16C487.383 291.375 485.571 289.961 482.035 289.961C481.372 289.961 479.206 289.961 479.206 289.961V298.58L482.035 298.536C485.659 298.491 487.383 296.944 487.383 294.16ZM517.914 312.017H497.715V284.392H517.914V290.049H504.61V295.353H515.306V300.967H504.61V306.359H517.914V312.017ZM528.851 303V312.017H521.823V284.392C521.823 284.392 533.182 284.392 532.917 284.392C540.254 284.392 544.1 287.795 544.1 293.143C544.1 296.856 542.155 299.685 538.442 301.099L545.514 312.017H537.602L532.077 302.735L528.851 303ZM528.718 297.784L532.254 297.696C535.26 297.475 536.895 296.237 536.895 293.585C536.895 291.154 535.215 289.961 531.679 289.961C531.547 289.961 528.718 289.961 528.718 289.961V297.784ZM555.29 312.017H548.263V284.392H555.29V312.017ZM580.44 312.017H560.24V284.392H580.44V290.049H567.136V295.353H577.832V300.967H567.136V306.359H580.44V312.017ZM603.443 302.337V284.392H610.028V312.282H602.559L590.934 294.116V312.017H584.348V284.392H591.951L603.443 302.337ZM637.783 285.806L635.662 291.685C633.584 290.447 631.153 289.696 628.678 289.696C623.904 289.696 620.81 292.922 620.81 298.138C620.81 303.398 623.728 306.713 628.722 306.713C631.418 306.713 633.938 305.829 636.015 304.458L637.474 310.691C635.308 311.884 631.639 312.68 628.413 312.68C619.573 312.68 613.738 307.597 613.738 298.315C613.738 289.386 619.529 283.729 628.634 283.729C631.993 283.729 635.264 284.568 637.783 285.806ZM661.31 312.017H641.111V284.392H661.31V290.049H648.006V295.353H658.702V300.967H648.006V306.359H661.31V312.017Z" fill="#2A97DC"/>
<path d="M683.585 306.889C686.06 306.889 687.784 305.961 687.784 304.282C687.784 302.425 685.795 301.806 682.127 300.79C678.104 299.685 673.242 297.828 673.242 292.303C673.242 287.176 676.999 283.773 683.85 283.773C688.182 283.773 691.541 284.745 694.193 286.204L692.823 291.994C690.083 290.535 686.635 289.563 683.895 289.563C681.464 289.563 680.27 290.403 680.27 291.906C680.27 293.718 682.79 294.425 686.105 295.353C690.348 296.502 694.768 298.447 694.768 303.707C694.768 308.967 690.701 312.68 683.453 312.68C679.342 312.68 675.364 311.619 672.8 310.16L674.126 304.326C676.867 305.784 680.182 306.889 683.585 306.889ZM721.352 285.806L719.23 291.685C717.153 290.447 714.722 289.696 712.247 289.696C707.473 289.696 704.379 292.922 704.379 298.138C704.379 303.398 707.296 306.713 712.291 306.713C714.987 306.713 717.507 305.829 719.584 304.458L721.043 310.691C718.877 311.884 715.208 312.68 711.982 312.68C703.142 312.68 697.307 307.597 697.307 298.315C697.307 289.386 703.097 283.729 712.203 283.729C715.562 283.729 718.833 284.568 721.352 285.806ZM751.661 298.094C751.661 306.845 745.34 312.68 737.119 312.68C728.942 312.68 722.71 307.597 722.71 298.27C722.71 289.519 728.986 283.729 737.208 283.729C745.429 283.729 751.661 288.767 751.661 298.094ZM744.589 298.27C744.589 292.966 741.804 289.386 737.119 289.386C732.434 289.386 729.782 292.922 729.782 298.094C729.782 303.398 732.522 307.022 737.252 307.022C741.893 307.022 744.589 303.442 744.589 298.27ZM762.419 303V312.017H755.391V284.392C755.391 284.392 766.751 284.392 766.485 284.392C773.823 284.392 777.668 287.795 777.668 293.143C777.668 296.856 775.723 299.685 772.01 301.099L779.082 312.017H771.171L765.646 302.735L762.419 303ZM762.287 297.784L765.822 297.696C768.828 297.475 770.463 296.237 770.463 293.585C770.463 291.154 768.784 289.961 765.248 289.961C765.115 289.961 762.287 289.961 762.287 289.961V297.784ZM801.986 312.017H781.787V284.392H801.986V290.049H788.682V295.353H799.378V300.967H788.682V306.359H801.986V312.017Z" fill="#62A550"/>
<path d="M184.377 217.138C184.377 219.299 182.636 221.05 180.489 221.05C178.342 221.05 176.602 219.299 176.602 217.138C176.602 214.978 178.342 213.226 180.489 213.226C182.636 213.226 184.377 214.978 184.377 217.138Z" fill="#F5F5F5"/>
<path d="M193.144 217.138C193.144 219.252 191.441 220.965 189.341 220.965C187.241 220.965 185.538 219.252 185.538 217.138C185.538 215.025 187.241 213.311 189.341 213.311C191.441 213.311 193.144 215.025 193.144 217.138Z" fill="#F5F5F5"/>
<path d="M202.19 217.138C202.19 219.329 200.425 221.105 198.248 221.105C196.07 221.105 194.305 219.329 194.305 217.138C194.305 214.947 196.07 213.171 198.248 213.171C200.425 213.171 202.19 214.947 202.19 217.138Z" fill="#F5F5F5"/>
<path d="M184.336 226.327C184.336 228.488 182.595 230.239 180.448 230.239C178.301 230.239 176.561 228.488 176.561 226.327C176.561 224.167 178.301 222.415 180.448 222.415C182.595 222.415 184.336 224.167 184.336 226.327Z" fill="#F5F5F5"/>
<path d="M184.34 235.599C184.34 237.759 182.599 239.511 180.452 239.511C178.305 239.511 176.565 237.759 176.565 235.599C176.565 233.438 178.305 231.687 180.452 231.687C182.599 231.687 184.34 233.438 184.34 235.599Z" fill="#F5F5F5"/>
<path d="M193.187 226.327C193.187 228.488 191.447 230.239 189.3 230.239C187.153 230.239 185.412 228.488 185.412 226.327C185.412 224.167 187.153 222.415 189.3 222.415C191.447 222.415 193.187 224.167 193.187 226.327Z" fill="#F5F5F5"/>
<path d="M193.228 235.601C193.228 237.761 191.488 239.512 189.341 239.512C187.194 239.512 185.454 237.761 185.454 235.601C185.454 233.441 187.194 231.689 189.341 231.689C191.488 231.689 193.228 233.441 193.228 235.601Z" fill="#F5F5F5"/>
<path d="M202.149 226.383C202.149 228.574 200.384 230.35 198.206 230.35C196.029 230.35 194.264 228.574 194.264 226.383C194.264 224.192 196.029 222.415 198.206 222.415C200.384 222.415 202.149 224.192 202.149 226.383Z" fill="#F5F5F5"/>
<circle cx="181.5" cy="222.5" r="21.128" stroke="#F5F5F5" stroke-width="2.7439"/>
<defs>
<filter id="filter0_d_768_139" x="11.6807" y="69.5806" width="274.87" height="197.121" filterUnits="userSpaceOnUse" color-interpolation-filters="sRGB">
<feFlood flood-opacity="0" result="BackgroundImageFix"/>
<feColorMatrix in="SourceAlpha" type="matrix" values="0 0 0 0 0 0 0 0 0 0 0 0 0 0 0 0 0 0 127 0" result="hardAlpha"/>
<feOffset dx="7" dy="11"/>
<feGaussianBlur stdDeviation="8.5"/>
<feComposite in2="hardAlpha" operator="out"/>
<feColorMatrix type="matrix" values="0 0 0 0 0 0 0 0 0 0 0 0 0 0 0 0 0 0 0.1 0"/>
<feBlend mode="normal" in2="BackgroundImageFix" result="effect1_dropShadow_768_139"/>
<feBlend mode="normal" in="SourceGraphic" in2="effect1_dropShadow_768_139" result="shape"/>
</filter>
<linearGradient id="paint0_linear_768_139" x1="46.0726" y1="237.177" x2="176.338" y2="288.5" gradientUnits="userSpaceOnUse">
<stop offset="0.124196" stop-color="#6DB655"/>
<stop offset="1" stop-color="#075A49"/>
</linearGradient>
<linearGradient id="paint1_linear_768_139" x1="36.1635" y1="55" x2="183.838" y2="100.5" gradientUnits="userSpaceOnUse">
<stop offset="0.694159" stop-color="#399DD9"/>
<stop offset="1" stop-color="#1E5373"/>
</linearGradient>
<linearGradient id="paint2_linear_768_139" x1="107.053" y1="55" x2="62.08" y2="203.638" gradientUnits="userSpaceOnUse">
<stop offset="0.0817308" stop-color="#68B8E7"/>
<stop offset="0.524038" stop-color="#399DD9" stop-opacity="0"/>
</linearGradient>
<linearGradient id="paint3_linear_768_139" x1="130.682" y1="284.436" x2="235.872" y2="135.036" gradientUnits="userSpaceOnUse">
<stop stop-color="#045849"/>
<stop offset="1" stop-color="#4F984D"/>
</linearGradient>
</defs>
</svg>
